<?xml version="1.0" encoding="utf-8"?>
<!-- Generator: Adobe Illustrator 23.0.6, SVG Export Plug-In . SVG Version: 6.00 Build 0)  -->
<svg version="1.1" id="Layer_1" xmlns="http://www.w3.org/2000/svg" xmlns:xlink="http://www.w3.org/1999/xlink" x="0px" y="0px"
	 viewBox="0 0 1000 303" style="enable-background:new 0 0 1000 303;" xml:space="preserve">
<style type="text/css">
	.st0{fill-rule:evenodd;clip-rule:evenodd;fill:#333333;}
</style>
<path id="Alot" class="st0" d="M8,298.8h46.5c6.7,0.2,12.8-3.8,15.2-10.1L142,128l32,70h-35.9c-6.8,0-7.9,4.3-7.9,4.3l-19.4,46.1
	c0,0-3.3,6.7,5.6,6.7c19.7,0,83.3,0,83.3,0l15.2,33.2c3.8,8,7.2,10.5,14.8,10.5h46.9c6.3,0,9.7-5.5,7.2-10.9L151.6,4.6
	c-1.4-2.7-4.1-4.5-7.2-4.6h-4.2c-3,0.2-5.8,1.9-7.2,4.6L0.8,287.8C-1.7,293.3,1.7,298.8,8,298.8z M308.9,290.8c0,4.4,3.6,8,8,8
	c0,0,0,0,0,0h158.8c4.4,0,8-3.6,8-8c0,0,0,0,0,0v-45.9c0-4.4-3.6-8-8-8c0,0,0,0,0,0H375.2V12.2c-0.2-4.4-3.7-7.9-8-8H317
	c-4.4,0-8,3.6-8,8c0,0,0,0,0,0L308.9,290.8L308.9,290.8z M487.9,151.9c0,84.2,67.1,151.1,151.6,151.1s152-66.9,152-151.1
	C791.7,68.3,724.1,0.2,640.5,0c-0.3,0-0.6,0-1,0C555,0,487.9,67.8,487.9,151.9z M555.4,151.9c0-46.3,38-84.6,84-84.6
	c46.5,0,84.5,38.3,84.5,84.6c0,45.9-38,83.7-84.5,83.7C593.5,235.7,555.4,197.8,555.4,151.9z M864.9,290.8c0.2,4.4,3.7,7.9,8,8h50.7
	c4.4-0.1,7.9-3.6,8-8V66.1H992c4.4,0,8-3.6,8-8c0,0,0,0,0,0V12.2c0-4.4-3.6-8-8-8c0,0,0,0,0,0H804.5c-4.4,0-8,3.6-8,8c0,0,0,0,0,0
	v45.9c0,4.4,3.6,8,8,8c0,0,0,0,0,0h60.4L864.9,290.8L864.9,290.8z"/>
</svg>
