<?xml version="1.0" encoding="utf-8"?>
<!-- Generator: Adobe Illustrator 23.0.6, SVG Export Plug-In . SVG Version: 6.00 Build 0)  -->
<svg version="1.1" xmlns="http://www.w3.org/2000/svg" xmlns:xlink="http://www.w3.org/1999/xlink" x="0px" y="0px"
	 viewBox="0 0 1000 303" style="enable-background:new 0 0 1000 303;" xml:space="preserve">
<style type="text/css">
	.st0{enable-background:new    ;}
	.st1{fill:#38AA34;}
	.st2{fill:#D60651;}
	.st3{fill:#4491EB;}
</style>
<g id="T" class="st0">
	<path class="st1" d="M864.9,290.8c0,4.2,3.8,8,8,8h50.7c4.2,0,8-3.8,8-8V66.1H992c4.6,0,8-3.8,8-8V12.2c0-4.2-3.4-8-8-8H804.5
		c-4.6,0-8,3.8-8,8v45.9c0,4.2,3.4,8,8,8h60.4V290.8z"/>
</g>
<g id="O" class="st0">
	<path class="st2" d="M487.9,151.9c0,84.2,67.1,151.1,151.6,151.1c84.5,0,152-66.9,152-151.1C791.5,67.8,723.9,0,639.5,0
		C555,0,487.9,67.8,487.9,151.9z M555.4,151.9c0-46.3,38-84.6,84-84.6c46.4,0,84.5,38.3,84.5,84.6c0,45.9-38,83.7-84.5,83.7
		C593.5,235.7,555.4,197.8,555.4,151.9z"/>
</g>
<g id="L" class="st0">
	<path class="st3" d="M308.9,290.8c0,4.2,3.4,8,8,8h158.8c4.6,0,8-3.8,8-8v-45.9c0-4.2-3.4-8-8-8H375.2V12.2c0-4.2-3.8-8-8-8H317
		c-4.6,0-8,3.8-8,8V290.8z"/>
</g>
<g id="A" class="st0">
	<path d="M8,298.8h46.4c8.4,0,13.1-5,15.2-10.1L142,128l32,70c0,0-24.7,0-35.9,0c-6.8,0-7.9,4.3-7.9,4.3l-19.4,46.1
		c0,0-3.2,6.7,5.6,6.7c19.7,0,83.3,0,83.3,0l15.2,33.2c3.8,8,7.2,10.5,14.8,10.5h46.9c6.3,0,9.7-5.5,7.2-10.9L151.6,4.6
		c-1.3-2.5-4.2-4.6-7.2-4.6h-4.2c-3,0-5.9,2.1-7.2,4.6L0.8,287.8C-1.7,293.3,1.7,298.8,8,298.8z"/>
</g>
</svg>
