<?xml version="1.0" encoding="utf-8"?>
<!-- Generator: Adobe Illustrator 23.0.3, SVG Export Plug-In . SVG Version: 6.00 Build 0)  -->
<svg version="1.1" id="Layer_1" xmlns="http://www.w3.org/2000/svg" xmlns:xlink="http://www.w3.org/1999/xlink" x="0px" y="0px"
	 viewBox="0 0 527.4 197.5" style="enable-background:new 0 0 527.4 197.5;" xml:space="preserve">
<style type="text/css">
	.st0{fill:#333333;}
</style>
<path id="Pfad_49" class="st0" d="M156.9,194.8l-20-47.8H46.4l-20,47.8H0L79,8.5h25.3l79,186.3H156.9z M56,123.6v1.3h71.2v-1.3
	L92.1,38.4h-0.5L56,123.6z"/>
<path id="Pfad_50" class="st0" d="M264.2,0v194.8h-24.3V0H264.2z"/>
<path id="Pfad_51" class="st0" d="M292.4,126.8c0-21.2,6.2-38.2,18.7-51.2s29-19.5,49.5-19.5c20.6,0,37.1,6.5,49.6,19.5
	s18.8,30.1,18.8,51.2c0,21.2-6.3,38.2-18.8,51.2s-29.1,19.5-49.6,19.5c-20.6,0-37.1-6.5-49.5-19.5S292.4,147.9,292.4,126.8z
	 M329.9,163.2c17.4,16.2,44.3,16.2,61.6,0c8.8-8.1,13.2-20.3,13.2-36.6s-4.4-28.4-13.2-36.4c-17.4-16-44.2-16-61.6,0
	c-8.8,8-13.2,20.1-13.2,36.4S321.1,155.1,329.9,163.2z"/>
<path id="Pfad_52" class="st0" d="M527.4,79.5h-38.7v80.6c0,7.5,2,12.1,6.1,13.9c4.2,1.6,8.6,2.3,13.1,2.1
	c6.1-0.2,12.1-1.6,17.6-4.3h1.9v19.7c-7.4,3.9-15.6,5.9-24,5.9c-26,0-39-11.7-39-35.2V79.5h-25.3v-1.6l49.6-48.6v29.4h38.7V79.5z"/>
</svg>
